<svg xmlns="http://www.w3.org/2000/svg" width="106.85" height="26" viewBox="0 0 106.85 26"><path d="M45.25,20.35a7.569,7.569,0,0,0-2.175-5.825A8.065,8.065,0,0,0,37.35,12.5a7.266,7.266,0,0,0-5.375,1.925A11.213,11.213,0,0,0,29.25,20.2V13h-9.5V38h9.5V24.5q0-4.5,3.25-4.5t3.25,4.45V38h9.5V24.5q0-4.5,3.25-4.5t3.25,4.45V38h9.5V20.35a7.569,7.569,0,0,0-2.175-5.825A8.065,8.065,0,0,0,53.35,12.5Q46.75,12.5,45.25,20.35Zm25.2-7.85a14.187,14.187,0,0,0-9.75,3.4q-3.85,3.4-3.85,9.6t3.85,9.6a14.187,14.187,0,0,0,9.75,3.4,14.229,14.229,0,0,0,9.775-3.375Q84.05,31.75,84.05,25.5T80.2,15.875A14.251,14.251,0,0,0,70.45,12.5Zm.05,5.7q4.05,0,4.05,7.3a11.037,11.037,0,0,1-1.05,5.325,3.283,3.283,0,0,1-3,1.875,3.39,3.39,0,0,1-3.05-1.875,10.614,10.614,0,0,1-1.1-5.325Q66.35,18.2,70.5,18.2Zm21.65-5.7a14.187,14.187,0,0,0-9.75,3.4q-3.85,3.4-3.85,9.6t3.85,9.6a14.187,14.187,0,0,0,9.75,3.4,14.229,14.229,0,0,0,9.775-3.375q3.825-3.375,3.825-9.625t-3.85-9.625A14.251,14.251,0,0,0,92.15,12.5Zm.05,5.7q4.05,0,4.05,7.3a11.037,11.037,0,0,1-1.05,5.325,3.283,3.283,0,0,1-3,1.875,3.39,3.39,0,0,1-3.05-1.875,10.614,10.614,0,0,1-1.1-5.325Q88.05,18.2,92.2,18.2ZM116,38l10.6-25h-9.3l-5,14.45L107.4,13H97.75L108,38Z" transform="translate(-19.75 -12.5)"/></svg>